<?xml version="1.0" standalone="no"?>
<!DOCTYPE svg PUBLIC "-//W3C//DTD SVG 1.1//EN" "https://www.w3.org/Graphics/SVG/1.1/DTD/svg11.dtd">

<svg width="800" height="600" version="1.1" xmlns="http://www.w3.org/2000/svg">
	<ellipse stroke="black" stroke-width="1" fill="none" cx="396.5" cy="111.5" rx="30" ry="30"/>
	<text x="389.5" y="117.5" font-family="Times New Roman" font-size="20">A</text>
	<ellipse stroke="black" stroke-width="1" fill="none" cx="242.5" cy="225.5" rx="30" ry="30"/>
	<text x="237.5" y="231.5" font-family="Times New Roman" font-size="20">0</text>
	<ellipse stroke="black" stroke-width="1" fill="none" cx="545.5" cy="225.5" rx="30" ry="30"/>
	<text x="538.5" y="231.5" font-family="Times New Roman" font-size="20">X</text>
	<ellipse stroke="black" stroke-width="1" fill="none" cx="242.5" cy="466.5" rx="30" ry="30"/>
	<text x="225" y="472.5" font-family="Times New Roman" font-size="20">&lt;=Y</text>
	<ellipse stroke="black" stroke-width="1" fill="none" cx="242.5" cy="466.5" rx="24" ry="24"/>
	<ellipse stroke="black" stroke-width="1" fill="none" cx="545.5" cy="466.5" rx="30" ry="30"/>
	<text x="532.5" y="472.5" font-family="Times New Roman" font-size="20">&gt;Y</text>
	<ellipse stroke="black" stroke-width="1" fill="none" cx="396.5" cy="338.5" rx="30" ry="30"/>
	<text x="389.5" y="344.5" font-family="Times New Roman" font-size="20">B</text>
	<polygon stroke="black" stroke-width="1" points="372.388,129.349 266.612,207.651"/>
	<polygon fill="black" stroke-width="1" points="266.612,207.651 276.017,206.91 270.067,198.872"/>
	<text x="226.5" y="159.5" font-family="Times New Roman" font-size="20">First round</text>
	<polygon stroke="black" stroke-width="1" points="420.326,129.729 521.674,207.271"/>
	<polygon fill="black" stroke-width="1" points="521.674,207.271 518.358,198.438 512.282,206.38"/>
	<text x="476.5" y="159.5" font-family="Times New Roman" font-size="20">Copy Opponent</text>
	<polygon stroke="black" stroke-width="1" points="419.256,358.049 522.744,446.951"/>
	<polygon fill="black" stroke-width="1" points="522.744,446.951 519.934,437.945 513.417,445.531"/>
	<polygon stroke="black" stroke-width="1" points="373.429,357.676 265.571,447.324"/>
	<polygon fill="black" stroke-width="1" points="265.571,447.324 274.92,446.056 268.527,438.365"/>
	<text x="114.5" y="393.5" font-family="Times New Roman" font-size="20">Copy Opponent's Accept</text>
</svg>
