<?xml version="1.0" standalone="no"?>
<!DOCTYPE svg PUBLIC "-//W3C//DTD SVG 1.1//EN" "https://www.w3.org/Graphics/SVG/1.1/DTD/svg11.dtd">

<svg width="800" height="600" version="1.1" xmlns="http://www.w3.org/2000/svg">
	<ellipse stroke="black" stroke-width="1" fill="none" cx="396.5" cy="111.5" rx="30" ry="30"/>
	<text x="389.5" y="117.5" font-family="Times New Roman" font-size="20">A</text>
	<ellipse stroke="black" stroke-width="1" fill="none" cx="242.5" cy="225.5" rx="30" ry="30"/>
	<text x="232.5" y="231.5" font-family="Times New Roman" font-size="20">91</text>
	<ellipse stroke="black" stroke-width="1" fill="none" cx="266.5" cy="426.5" rx="30" ry="30"/>
	<text x="259.5" y="432.5" font-family="Times New Roman" font-size="20">.9</text>
	<ellipse stroke="black" stroke-width="1" fill="none" cx="396.5" cy="348.5" rx="30" ry="30"/>
	<text x="389.5" y="354.5" font-family="Times New Roman" font-size="20">B</text>
	<ellipse stroke="black" stroke-width="1" fill="none" cx="515.5" cy="426.5" rx="30" ry="30"/>
	<text x="508.5" y="432.5" font-family="Times New Roman" font-size="20">.1</text>
	<ellipse stroke="black" stroke-width="1" fill="none" cx="191.5" cy="519.5" rx="30" ry="30"/>
	<text x="186.5" y="525.5" font-family="Times New Roman" font-size="20">0</text>
	<ellipse stroke="black" stroke-width="1" fill="none" cx="191.5" cy="519.5" rx="24" ry="24"/>
	<ellipse stroke="black" stroke-width="1" fill="none" cx="344.5" cy="519.5" rx="30" ry="30"/>
	<text x="333.5" y="525.5" font-family="Times New Roman" font-size="20">&gt;0</text>
	<ellipse stroke="black" stroke-width="1" fill="none" cx="604.5" cy="519.5" rx="30" ry="30"/>
	<text x="597.5" y="525.5" font-family="Times New Roman" font-size="20">X</text>
	<ellipse stroke="black" stroke-width="1" fill="none" cx="604.5" cy="519.5" rx="24" ry="24"/>
	<polygon stroke="black" stroke-width="1" points="372.388,129.349 266.612,207.651"/>
	<polygon fill="black" stroke-width="1" points="266.612,207.651 276.017,206.91 270.067,198.872"/>
	<polygon stroke="black" stroke-width="1" points="370.775,363.935 292.225,411.065"/>
	<polygon fill="black" stroke-width="1" points="292.225,411.065 301.657,411.237 296.512,402.662"/>
	<polygon stroke="black" stroke-width="1" points="421.591,364.946 490.409,410.054"/>
	<polygon fill="black" stroke-width="1" points="490.409,410.054 486.46,401.487 480.978,409.85"/>
	<polygon stroke="black" stroke-width="1" points="536.242,448.174 583.758,497.826"/>
	<polygon fill="black" stroke-width="1" points="583.758,497.826 581.839,488.589 574.614,495.503"/>
	<polygon stroke="black" stroke-width="1" points="247.667,449.852 210.333,496.148"/>
	<polygon fill="black" stroke-width="1" points="210.333,496.148 219.247,493.059 211.463,486.782"/>
	<polygon stroke="black" stroke-width="1" points="285.778,449.486 325.222,496.514"/>
	<polygon fill="black" stroke-width="1" points="325.222,496.514 323.912,487.172 316.25,493.598"/>
</svg>
